<svg xmlns="http://www.w3.org/2000/svg" viewBox="0 0 64 64">
  <!-- Pokéball-style background -->
  <circle cx="32" cy="32" r="30" fill="#FFD700"/>
  <circle cx="32" cy="32" r="28" fill="#ffffff"/>

  <!-- Top half (red/gold) -->
  <path d="M 32 4 A 28 28 0 0 1 60 32 L 4 32 A 28 28 0 0 1 32 4 Z" fill="#667eea"/>

  <!-- Middle band -->
  <rect x="4" y="28" width="56" height="8" fill="#FFD700"/>
  <circle cx="32" cy="32" r="10" fill="#ffffff"/>
  <circle cx="32" cy="32" r="6" fill="#764ba2"/>

  <!-- Microphone icon overlay -->
  <g transform="translate(26, 20)">
    <!-- Mic body -->
    <rect x="4" y="0" width="4" height="8" fill="#FFD700" rx="2"/>
    <!-- Mic bottom -->
    <path d="M 2 8 Q 2 12 6 12 Q 10 12 10 8" stroke="#FFD700" stroke-width="1.5" fill="none"/>
    <line x1="6" y1="12" x2="6" y2="14" stroke="#FFD700" stroke-width="1.5"/>
    <line x1="4" y1="14" x2="8" y2="14" stroke="#FFD700" stroke-width="1.5"/>
  </g>

  <!-- Outer border -->
  <circle cx="32" cy="32" r="30" fill="none" stroke="#000000" stroke-width="2"/>
</svg>
